<svg viewBox="0 0 152 85" fill="none" xmlns="http://www.w3.org/2000/svg">
<path d="M139.208 51.3859C138.781 50.968 138.267 50.7578 137.661 50.7578C137.054 50.7578 136.552 50.968 136.127 51.3859C135.7 51.8134 135.487 52.3245 135.487 52.9263C135.487 53.5281 135.697 54.044 136.12 54.4691C136.545 54.899 137.056 55.1115 137.658 55.1115C138.26 55.1115 138.776 54.899 139.206 54.4691C139.628 54.0368 139.841 53.5257 139.841 52.9263C139.841 52.3269 139.628 51.8134 139.206 51.3859M138.988 54.2637C138.621 54.6267 138.179 54.813 137.658 54.813C137.138 54.813 136.693 54.6267 136.33 54.2637C135.967 53.8935 135.791 53.4517 135.791 52.9335C135.791 52.4152 135.97 51.9686 136.335 51.6056C136.701 51.2378 137.142 51.0563 137.661 51.0563C138.179 51.0563 138.621 51.2402 138.991 51.6056C139.351 51.9686 139.538 52.4105 139.538 52.9335C139.538 53.4565 139.351 53.8935 138.991 54.2637" fill="white"/>
<path d="M138.733 76.4064C138.478 75.4415 138.375 74.0874 138.375 72.7309V61.9983C138.375 57.0499 133.427 56.1328 129.317 56.1328C124.968 56.1328 120.511 57.5419 119.726 62.1177C119.676 62.4114 119.628 63.0371 120.54 63.0371H124.54C125.283 63.0371 125.374 62.3947 125.457 62.1177C125.925 60.5558 127.208 59.9229 129.037 59.9229C131.034 59.9229 132.71 60.2835 132.71 62.7147C132.71 65.1459 129.477 64.9119 126.007 65.4301C122.496 65.9102 118.985 67.0278 118.985 71.6944C118.985 75.9239 122.097 77.8799 126.007 77.8799C128.502 77.8799 131.117 77.2112 132.911 75.3651C132.925 75.3531 132.954 75.3197 132.954 75.3651C132.976 75.7138 133.03 76.0601 133.104 76.404C133.174 76.7168 133.348 77.321 134.026 77.321H138.175C139.094 77.321 138.831 76.7741 138.736 76.4064M132.71 69.3396C132.71 70.5767 132.55 74.0874 128.12 74.0874C126.286 74.0874 124.65 73.5692 124.65 71.4556C124.65 69.342 126.246 68.7832 128.003 68.4226C129.732 68.1073 131.695 68.0643 132.667 67.2619C132.682 67.2523 132.71 67.2189 132.71 67.2643V69.3396Z" fill="white"/>
<path d="M148.768 60.4812H151.08C151.08 60.4812 151.999 60.4884 151.999 59.5641V57.6082C151.999 57.6082 151.999 56.6935 151.08 56.6935H148.768C147.851 56.6935 147.849 55.774 147.849 55.774V51.4156C147.849 51.4156 147.851 50.4961 146.929 50.4961H143.103C142.184 50.4961 142.184 51.4156 142.184 51.4156V55.774C142.184 55.774 142.184 56.6935 141.267 56.6935H139.669C138.754 56.6935 138.752 57.6082 138.752 57.6082V59.5641C138.752 60.4884 139.669 60.4812 139.669 60.4812H141.267C142.186 60.4812 142.184 61.4007 142.184 61.4007V72.6539C142.184 76.7617 145.217 77.5593 148.689 77.5593C149.473 77.5593 150.318 77.545 151.082 77.4734C152.004 77.3874 151.999 76.5515 151.999 76.5515V73.977C151.999 72.9429 151.933 72.9883 151.082 73.0599C150.808 73.0838 150.528 73.0934 150.246 73.0934C148.331 73.0934 147.851 72.6133 147.851 70.7004V61.4031C147.851 60.486 148.771 60.4836 148.771 60.4836" fill="white"/>
<path d="M138.62 53.9617C138.615 53.8948 138.615 53.8327 138.615 53.7802V53.6011C138.615 53.4817 138.57 53.3575 138.481 53.2309C138.395 53.1043 138.262 53.0232 138.075 52.9945C138.221 52.9682 138.336 52.9348 138.417 52.8751C138.572 52.7796 138.656 52.6291 138.656 52.4094C138.656 52.1061 138.524 51.9079 138.278 51.8028C138.14 51.7478 137.925 51.7168 137.629 51.7168H136.788V54.105H137.201V53.1617H137.54C137.762 53.1617 137.925 53.1951 138.011 53.2405C138.161 53.3288 138.238 53.5127 138.238 53.7874V53.9784L138.247 54.0549C138.247 54.0549 138.254 54.0716 138.254 54.0811C138.259 54.0859 138.259 54.0955 138.262 54.1026H138.658L138.644 54.074C138.629 54.0549 138.622 54.0119 138.62 53.9546M137.999 52.8202C137.908 52.8536 137.777 52.8727 137.586 52.8727H137.204V52.0225H137.571C137.808 52.0225 137.98 52.0488 138.087 52.1085C138.195 52.1706 138.25 52.2828 138.25 52.4548C138.25 52.6339 138.164 52.7628 137.999 52.8225" fill="white"/>
<path d="M11.6115 56.1298C9.07521 56.1298 6.85417 57.1137 5.49528 59.2751C5.48573 59.2918 5.45707 59.3228 5.42602 59.3228C5.42602 59.3228 5.38781 59.3228 5.38781 59.2798V57.6033C5.38781 56.6886 4.46835 56.6886 4.46835 56.6886H0.921854C0.921854 56.6886 0 56.6838 0 57.6033V83.6587C0 84.5853 0.921854 84.5806 0.921854 84.5806H4.74538C4.74538 84.5806 5.66484 84.5806 5.66484 83.6611V74.8104C5.66484 74.7602 5.70544 74.7626 5.70544 74.7626H5.72694C5.76037 74.7626 5.77231 74.7841 5.77231 74.7841C7.12882 76.8165 9.45733 77.8745 11.9315 77.8745C17.957 77.8745 20.9876 72.7255 20.9876 67.2183C20.9876 61.3552 18.0764 56.125 11.6115 56.125M10.4174 73.6091C6.7467 73.6091 5.46901 70.4161 5.46901 67.0654C5.46901 63.7147 6.66551 60.4023 10.3768 60.4023C14.0881 60.4023 15.3252 63.7936 15.3252 67.0654C15.3252 70.3373 14.1287 73.6091 10.4174 73.6091Z" fill="white"/>
<path d="M116.596 50.4902H112.768C111.849 50.4902 111.849 51.4097 111.849 51.4097V76.4047C111.849 77.3242 112.768 77.3218 112.768 77.3218H116.596C116.596 77.3218 117.516 77.3218 117.516 76.4047V51.4097C117.516 51.4097 117.513 50.4902 116.596 50.4902Z" fill="white"/>
<path d="M81.5377 56.1309C78.6646 56.1309 76.5105 57.7668 75.3116 59.5627C74.1939 57.0909 71.8797 56.1309 69.2861 56.1309C66.6925 56.1309 64.493 57.3488 63.0171 59.4338C63.0051 59.4481 62.9836 59.4815 62.9406 59.4815C62.9406 59.4815 62.9048 59.4815 62.9048 59.4433V57.6068C62.9048 56.6825 61.9854 56.6873 61.9854 56.6873H58.4795C58.4795 56.6873 57.5576 56.6825 57.5576 57.602V76.3996C57.5576 77.3215 58.4747 77.3167 58.4747 77.3167H62.303C62.303 77.3167 63.2225 77.3119 63.2225 76.3996V65.3494C63.2225 61.3157 65.9355 60.6016 67.0532 60.6016C70.645 60.6016 70.4826 63.3528 70.4826 65.7482V76.402C70.4826 77.3239 71.4021 77.3191 71.4021 77.3191H75.2304C75.2304 77.3191 76.1498 77.3262 76.1498 76.402V65.8294C76.1498 63.2358 76.7493 60.6016 79.9423 60.6016C83.1354 60.6016 83.4148 62.8752 83.4148 65.6264V76.402C83.4148 77.3239 84.3343 77.3191 84.3343 77.3191H88.1602C88.1602 77.3191 89.0796 77.3191 89.0796 76.402V63.5128C89.0796 58.1656 85.9296 56.1309 81.54 56.1309" fill="white"/>
<path d="M55.104 56.1471C54.9965 56.1376 54.8915 56.1328 54.7935 56.1328C52.0543 56.1328 49.2768 57.9073 48.226 60.4794C48.2212 60.4937 48.1973 60.5223 48.1662 60.5223C48.1662 60.5223 48.128 60.52 48.128 60.4818V57.6111C48.128 56.6869 47.2086 56.6917 47.2086 56.6917H43.6549C43.6549 56.6917 42.7402 56.6869 42.7402 57.6111V76.404C42.7402 77.321 43.6597 77.321 43.6597 77.321H47.488C47.488 77.321 48.4075 77.321 48.4075 76.404V68.0237C48.4075 64.3913 49.8428 61.3988 53.9959 61.3988C54.3446 61.3988 54.7386 61.4203 55.1088 61.4561C55.4551 61.492 56.0306 61.6018 56.0306 60.6776V57.0666C56.0306 56.3239 55.424 56.1734 55.104 56.1448" fill="white"/>
<path d="M110.017 76.4064C109.764 75.4415 109.658 74.0874 109.658 72.7309V61.9983C109.658 57.0499 104.712 56.1328 100.602 56.1328C96.2534 56.1328 91.797 57.5419 91.0113 62.1177C90.9611 62.4114 90.9134 63.0371 91.8233 63.0371H95.8259C96.5687 63.0371 96.6594 62.3947 96.743 62.1177C97.2087 60.5558 98.4912 59.9229 100.323 59.9229C102.317 59.9229 103.994 60.2835 103.994 62.7147C103.994 65.1459 100.762 64.9119 97.2899 65.4301C93.7792 65.9102 90.2686 67.0278 90.2686 71.6944C90.2686 75.9239 93.3828 77.8799 97.2899 77.8799C99.7856 77.8799 102.401 77.2112 104.197 75.3651C104.209 75.3531 104.237 75.3197 104.237 75.3651C104.261 75.7138 104.314 76.0601 104.39 76.404C104.455 76.7168 104.634 77.321 105.31 77.321H109.46C110.377 77.321 110.117 76.7741 110.017 76.4064ZM103.994 69.3396C103.994 70.5767 103.834 74.0874 99.4058 74.0874C97.5693 74.0874 95.9334 73.5692 95.9334 71.4556C95.9334 69.342 97.5311 68.7832 99.2841 68.4226C101.013 68.1073 102.976 68.0643 103.951 67.2619C103.965 67.2523 103.994 67.2189 103.994 67.2643V69.3396Z" fill="white"/>
<path d="M41.1983 76.4064C40.9428 75.4415 40.8425 74.0874 40.8425 72.7309V61.9983C40.8425 57.0499 35.8941 56.1328 31.784 56.1328C27.4351 56.1328 22.9786 57.5419 22.1929 62.1177C22.1428 62.4114 22.095 63.0371 23.0073 63.0371H27.0076C27.7503 63.0371 27.8434 62.3947 27.9246 62.1177C28.3927 60.5558 29.6752 59.9229 31.5046 59.9229C33.5011 59.9229 35.1753 60.2835 35.1753 62.7147C35.1753 65.1459 31.944 64.9119 28.4739 65.4301C24.9633 65.9102 21.4502 67.0278 21.4502 71.6944C21.4502 75.9239 24.562 77.8799 28.4739 77.8799C30.9696 77.8799 33.5823 77.2112 35.3783 75.3651C35.3902 75.3531 35.4212 75.3197 35.4212 75.3651C35.4427 75.7138 35.4977 76.0601 35.5717 76.404C35.6386 76.7168 35.8153 77.321 36.4935 77.321H40.6443C41.5613 77.321 41.301 76.7741 41.2031 76.4064M35.1729 69.3396C35.1729 70.5767 35.0129 74.0874 30.5851 74.0874C28.751 74.0874 27.115 73.5692 27.115 71.4556C27.115 69.342 28.7104 68.7832 30.4633 68.4226C32.1948 68.1073 34.1555 68.0643 35.1323 67.2619C35.1466 67.2523 35.1729 67.2189 35.1729 67.2643V69.3396Z" fill="white"/>
<path d="M82.896 5.20154C81.2863 2.34285 80.1089 0.00718113 78.3512 1.64896e-05C76.603 -0.00714815 75.5069 2.32136 74.0095 5.16811C72.512 8.01486 71.2941 11.3846 71.337 13.4695H71.3562C71.4278 16.8656 74.7402 19.6311 78.7596 19.6478C82.7718 19.6622 85.9744 16.9205 85.9027 13.5221H85.9099C85.8669 11.4372 84.5104 8.05785 82.8984 5.20154" fill="#37A2DC"/>
<path d="M45.3111 19.6239C41.607 19.3206 38.6504 18.9719 37.7954 20.2568C36.9476 21.5345 38.8056 23.5453 41.0003 26.1174C43.1975 28.6896 46.061 31.3333 48.2175 32.3817L48.2295 32.3674C51.7449 34.0774 56.1727 33.0886 58.1167 30.1535C60.0655 27.2208 58.7949 23.4522 55.2795 21.7399C53.1229 20.6867 49.0128 19.9248 45.3087 19.6215" fill="#37A2DC"/>
<path d="M116.786 26.3991C118.878 23.8461 120.659 21.8567 119.752 20.5671C118.851 19.2846 115.897 19.6023 112.205 19.8745C108.51 20.1468 104.429 20.8752 102.315 21.9093L102.327 21.9236C98.8836 23.6097 97.7707 27.3687 99.8413 30.3182C101.907 33.2676 106.38 34.2922 109.824 32.6061C111.935 31.572 114.694 28.9569 116.786 26.3991Z" fill="#37A2DC"/>
<path d="M96.0758 30.0811C97.5183 27.9078 98.495 23.7309 98.827 19.9575C99.1614 16.1865 99.5841 13.175 97.7236 12.2698C95.8799 11.3719 93.0595 13.2132 89.4413 15.3864C85.8256 17.5597 82.131 20.4136 80.6909 22.5869L80.71 22.5965C78.36 26.1382 79.8932 30.683 84.1347 32.7488C88.3762 34.8122 93.7186 33.6157 96.0686 30.074H96.0734L96.0758 30.0811Z" fill="#1C6FB7"/>
<path d="M76.9355 22.5722C75.4023 20.387 71.5955 17.5068 67.889 15.3025C64.1872 13.103 61.3095 11.2306 59.4872 12.1214C57.6794 13.0074 58.2095 16.0285 58.6967 19.8043C59.1815 23.58 60.3303 27.769 61.8611 29.9518L61.8826 29.9422C64.3807 33.5007 69.7757 34.7354 73.9288 32.703C78.0819 30.6683 79.4264 26.133 76.9307 22.5746H76.9355V22.5722Z" fill="#1C6FB7"/>
<path d="M59.9494 32.7716C56.9761 32.7596 52.1925 34.054 48.154 35.6231C44.1156 37.1921 40.8151 38.3313 40.8509 40.1273C40.8867 41.9113 44.2374 43.091 48.3427 44.6935C52.4456 46.296 57.2866 47.6286 60.2599 47.6406V47.6191C65.1056 47.6358 68.9649 44.3281 68.8813 40.23C68.7977 36.1294 64.7975 32.7931 59.9518 32.7763V32.7716H59.9494Z" fill="#1C6FB7"/>
<path d="M98.4133 47.7709C101.387 47.7829 106.173 46.4885 110.213 44.9194C114.25 43.3503 117.552 42.2088 117.514 40.4152C117.476 38.6312 114.128 37.4515 110.022 35.849C105.919 34.2465 101.079 32.9138 98.1076 32.9043V32.9234C93.2619 32.9067 89.4002 36.2167 89.4838 40.3125C89.5697 44.4131 93.5676 47.7518 98.4133 47.7685V47.7709Z" fill="#1C6FB7"/>
<path d="M85.512 47.6374C82.0705 51.2627 76.3436 51.4107 72.7159 47.9669C69.0906 44.5255 68.9449 38.7986 72.3887 35.1733C75.8301 31.548 81.5571 31.4023 85.18 34.8437C88.8053 38.2875 88.9534 44.0144 85.5096 47.6374" fill="#FFDD00"/>
<path d="M77.0077 46.3488C73.6212 44.1326 71.0682 39.6427 72.7543 36.3661C74.438 33.0895 80.1028 32.0697 83.4917 34.2884C86.8806 36.507 88.2658 40.961 86.5797 44.2377C84.8936 47.5143 80.399 48.5675 77.0053 46.3488" fill="white"/>
<path d="M78.5964 2.04102C77.1969 2.03625 76.3228 3.89905 75.1239 6.17741C73.925 8.45576 72.9482 11.1497 72.9864 12.819H73.0032C73.0605 15.5368 75.7114 17.7507 78.9259 17.7626C82.1381 17.7746 84.6982 15.5798 84.6409 12.862H84.6457C84.6099 11.195 83.5256 8.49159 82.236 6.20607C81.393 4.71105 80.7004 3.39514 79.929 2.66196C79.7976 2.53777 79.6663 2.43269 79.5301 2.34194C79.2388 2.15088 78.9307 2.0458 78.5987 2.04341" fill="white"/>
<path d="M54.1485 22.7182C52.4242 21.8752 49.1356 21.2662 46.1719 21.025C43.2105 20.7814 40.8414 20.502 40.1607 21.5313C39.4849 22.5534 40.9703 24.1607 42.7281 26.2217C44.4834 28.2804 46.7761 30.3939 48.5004 31.2346L48.5099 31.2227C51.3209 32.5911 54.8626 31.7982 56.4197 29.4506C57.6592 27.583 57.2675 25.2903 55.6387 23.7428C55.3951 23.5135 55.1277 23.2986 54.8315 23.1051C54.619 22.9642 54.3897 22.8353 54.1485 22.7182Z" fill="white"/>
<path d="M111.527 21.0582C108.571 21.2756 105.306 21.8583 103.615 22.687L103.625 22.6965C100.869 24.0459 99.9777 27.0526 101.633 29.4122C103.288 31.7717 106.865 32.5933 109.619 31.2416V31.2463C111.312 30.4176 113.519 28.3256 115.191 26.2789C116.865 24.2369 118.291 22.6464 117.565 21.6123C117.519 21.5502 117.467 21.4905 117.412 21.438C117.352 21.383 117.29 21.3329 117.218 21.2875C116.244 20.6498 114.109 20.8696 111.522 21.0606" fill="white"/>
<path d="M96.1212 14.9715C94.6453 14.2527 92.3885 15.7262 89.4963 17.4648C86.6042 19.2034 83.6476 21.4865 82.4941 23.2252L82.5132 23.2323C80.6337 26.0671 81.8588 29.7044 85.2501 31.3523C88.6438 33.0073 92.9187 32.0472 94.7982 29.2148H94.8006C95.9541 27.4738 96.735 24.1327 97.0025 21.1164C97.2413 18.4177 97.5375 16.2038 96.532 15.2509C96.4628 15.1864 96.3887 15.1291 96.3075 15.0766C96.2478 15.0384 96.1857 15.0026 96.1189 14.9691" fill="#37A2DC"/>
<path d="M67.7752 16.9439C64.8138 15.1814 62.5092 13.6864 61.0523 14.3981C59.6051 15.105 60.0326 17.5243 60.4195 20.5453C60.8111 23.5664 61.7258 26.9147 62.9534 28.6629L62.9701 28.6557C64.9666 31.5025 69.2845 32.4912 72.6065 30.8648C75.9285 29.2361 77.0056 25.6084 75.0091 22.7616C74.6747 22.2864 74.209 21.7705 73.6478 21.2379C72.4967 20.1441 70.9443 18.9691 69.3132 17.9064C68.8045 17.5744 68.2862 17.252 67.7752 16.9463" fill="#0097D7"/>
<path d="M59.0603 34.2266C56.6816 34.2194 52.8533 35.2511 49.6221 36.5097C46.3932 37.7659 43.7518 38.6758 43.7805 40.1135C43.8092 41.5393 46.4911 42.4827 49.7725 43.7675C53.0539 45.05 56.9276 46.1151 59.3063 46.1247V46.108C63.1847 46.1223 66.2703 43.4762 66.201 40.1971C66.17 38.6997 65.4846 37.3265 64.3812 36.2805C64.0803 35.9939 63.7484 35.7336 63.3901 35.4995C62.1841 34.7114 60.6795 34.2409 59.0579 34.2338" fill="#37A2DC"/>
<path d="M108.615 36.9763C105.334 35.6938 101.46 34.6263 99.0789 34.6191V34.6359C95.2028 34.6215 92.1149 37.2701 92.1817 40.5491C92.251 43.8281 95.4488 46.4981 99.3273 46.5148C101.704 46.5268 105.537 45.4927 108.765 44.2365C111.994 42.9803 114.636 42.068 114.605 40.6327C114.597 40.2553 114.404 39.909 114.06 39.5818C113.895 39.4242 113.695 39.2714 113.468 39.1233C112.376 38.4116 110.607 37.7573 108.615 36.9787" fill="#37A2DC"/>
<path d="M96.5191 28.2887C97.4624 26.4354 97.8398 23.0466 97.7419 20.0398C97.644 17.0354 97.6893 14.621 96.1179 14.0932C94.556 13.5678 92.4782 15.2968 89.7963 17.3674C87.1143 19.438 84.4324 22.0507 83.4914 23.9063L83.5081 23.9111C81.9725 26.9346 83.6371 30.3664 87.2313 31.5749C90.8232 32.7833 94.9811 31.3122 96.5191 28.2911H96.5215L96.5191 28.2887Z" fill="#1C6FB7"/>
<path d="M75.8125 21.8042C74.3748 20.2328 69.2163 16.8463 66.0399 15.4755C62.866 14.1046 61.2969 13.3332 59.9261 14.2169C58.5648 15.0934 60.3034 18.1885 61.0557 21.114C61.8104 24.042 63.1335 27.2279 64.5712 28.7993L64.5879 28.7898C66.9307 31.3475 71.3633 31.7893 74.4918 29.7761C77.6156 27.7628 78.2556 24.0587 75.9128 21.5009L75.8125 21.8042Z" fill="#1C6FB7"/>
<path d="M59.0564 33.4355C56.6753 33.6768 51.9514 35.1001 48.7465 36.428C45.2597 37.8728 43.1724 39.2126 43.3515 40.6288C43.5306 42.0355 47.2944 42.7018 50.7143 43.6213C54.1343 44.5407 58.1202 45.1856 60.5036 44.9443V44.9276C64.3845 44.5336 67.2002 41.5913 66.7918 38.3577C66.3834 35.124 59.0588 33.4379 59.0588 33.4379" fill="#1C6FB7"/>
<path d="M100.954 46.0973C103.34 45.9803 107.283 45.4859 110.454 44.0673C113.626 42.6464 116.062 40.86 115.957 39.4318C115.854 38.0132 113.12 37.2132 109.764 36.1122C106.409 35.0088 102.473 34.1515 100.09 34.2709V34.2852C96.204 34.4763 93.2473 37.2753 93.4862 40.5376C93.7226 43.7975 97.0685 46.286 100.954 46.0949V46.0973Z" fill="#1C6FB7"/>
<path d="M82.4081 5.22057C80.8486 3.10939 80.1584 1.66214 78.7493 1.83648C77.3498 2.01082 76.6907 3.97392 75.7593 6.3908C74.8279 8.81006 74.1711 11.6138 74.4004 13.2689H74.4171C74.7945 15.9628 77.7081 17.8279 80.9298 17.4291C84.1467 17.0327 85.7635 14.8236 85.3838 12.1273C85.3838 12.1273 83.9676 7.33175 82.4081 5.22296" fill="#37A2DC"/>
<path d="M44.5253 20.0535C41.5329 20.2326 40.3842 20.1418 39.8468 21.2476C39.3119 22.3462 41.7693 24.486 43.8065 26.2604C45.846 28.0349 48.4277 29.7854 50.2666 30.3682L50.2738 30.3562C53.271 31.3044 56.6981 30.0267 57.9304 27.5023C59.1627 24.9804 57.4074 22.6304 54.4078 21.6846C54.4078 21.6846 47.5202 19.8744 44.5253 20.0535Z" fill="#37A2DC"/>
<path d="M116.354 25.8664C117.923 23.7433 119.27 22.0859 118.489 21.0948C117.715 20.1108 115.36 20.4905 112.413 20.8631C109.464 21.238 106.22 21.9903 104.57 22.9026L104.582 22.9146C101.891 24.4024 101.155 27.4426 102.934 29.7043C104.716 31.9659 108.341 32.5916 111.033 31.1014C112.685 30.1915 114.785 27.9895 116.356 25.864" fill="#37A2DC"/>
<path d="M76.6107 46.5629C73.1813 44.3204 70.7644 39.6872 72.4696 36.3748C74.1748 33.0623 79.3548 32.322 82.7795 34.5645C86.2066 36.807 87.9953 41.5429 86.2926 44.8553C84.5898 48.1678 80.0378 48.8054 76.6107 46.5629Z" fill="#FFDD00"/>
</svg>
