<svg viewBox="0 0 105 58" fill="none" xmlns="http://www.w3.org/2000/svg">
<path d="M95.748 35.158C95.4555 34.8721 95.1042 34.7283 94.6891 34.7283C94.2741 34.7283 93.9309 34.8721 93.6401 35.158C93.3476 35.4505 93.2021 35.8002 93.2021 36.212C93.2021 36.6238 93.3459 36.9767 93.6352 37.2676C93.926 37.5617 94.2757 37.7071 94.6875 37.7071C95.0993 37.7071 95.4522 37.5617 95.7464 37.2676C96.0356 36.9718 96.181 36.6221 96.181 36.212C96.181 35.8018 96.0356 35.4505 95.7464 35.158M95.5976 37.127C95.346 37.3754 95.0437 37.5029 94.6875 37.5029C94.3313 37.5029 94.0273 37.3754 93.779 37.127C93.5306 36.8738 93.4097 36.5715 93.4097 36.2169C93.4097 35.8623 93.5322 35.5567 93.7822 35.3084C94.0322 35.0567 94.3345 34.9325 94.6891 34.9325C95.0437 34.9325 95.346 35.0583 95.5993 35.3084C95.846 35.5567 95.9735 35.859 95.9735 36.2169C95.9735 36.5747 95.846 36.8738 95.5993 37.127" fill="#002E6D"/>
<path d="M95.4235 52.2779C95.2487 51.6177 95.1784 50.6912 95.1784 49.7631V42.4197C95.1784 39.034 91.7927 38.4065 88.9805 38.4065C86.0049 38.4065 82.9558 39.3706 82.4182 42.5014C82.3839 42.7024 82.3512 43.1305 82.9754 43.1305H85.7124C86.2206 43.1305 86.2827 42.6909 86.3399 42.5014C86.6601 41.4327 87.5376 40.9997 88.7893 40.9997C90.1553 40.9997 91.3024 41.2465 91.3024 42.9099C91.3024 44.5734 89.09 44.4132 86.7157 44.7678C84.3137 45.0963 81.9116 45.861 81.9116 49.0539C81.9116 51.9478 84.0408 53.2861 86.7157 53.2861C88.4233 53.2861 90.2125 52.8285 91.4397 51.5654C91.4495 51.5573 91.4691 51.5344 91.4691 51.5654C91.4838 51.804 91.5214 52.0409 91.5721 52.2762C91.6195 52.4903 91.7387 52.9037 92.2028 52.9037H95.0411C95.6702 52.9037 95.4905 52.5295 95.4251 52.2779M91.3024 47.4427C91.3024 48.2892 91.193 50.6912 88.1618 50.6912C86.9069 50.6912 85.7876 50.3366 85.7876 48.8905C85.7876 47.4444 86.8791 47.062 88.0817 46.8153C89.2648 46.5996 90.608 46.5702 91.273 46.0211C91.2828 46.0146 91.3024 45.9917 91.3024 46.0228V47.4427Z" fill="#002E6D"/>
<path d="M102.289 41.3821H103.871C103.871 41.3821 104.5 41.387 104.5 40.7546V39.4163C104.5 39.4163 104.5 38.7905 103.871 38.7905H102.289C101.662 38.7905 101.66 38.1614 101.66 38.1614V35.1793C101.66 35.1793 101.662 34.5502 101.031 34.5502H98.4133C97.7842 34.5502 97.7842 35.1793 97.7842 35.1793V38.1614C97.7842 38.1614 97.7842 38.7905 97.1567 38.7905H96.0635C95.4377 38.7905 95.436 39.4163 95.436 39.4163V40.7546C95.436 41.387 96.0635 41.3821 96.0635 41.3821H97.1567C97.7858 41.3821 97.7842 42.0112 97.7842 42.0112V49.7108C97.7842 52.5213 99.8594 53.0671 102.235 53.0671C102.771 53.0671 103.35 53.0573 103.873 53.0083C104.503 52.9495 104.5 52.3776 104.5 52.3776V50.6161C104.5 49.9085 104.454 49.9396 103.873 49.9886C103.685 50.0049 103.493 50.0115 103.301 50.0115C101.99 50.0115 101.662 49.683 101.662 48.3742V42.0128C101.662 41.3854 102.291 41.3837 102.291 41.3837" fill="#002E6D"/>
<path d="M95.3451 36.9211C95.3418 36.8754 95.3418 36.8329 95.3418 36.7969V36.6744C95.3418 36.5927 95.3108 36.5077 95.2503 36.4211C95.1915 36.3345 95.1 36.279 94.9725 36.2593C95.0722 36.2414 95.1507 36.2185 95.2062 36.1776C95.3124 36.1123 95.3696 36.0093 95.3696 35.859C95.3696 35.6515 95.2797 35.5159 95.1114 35.444C95.0167 35.4064 94.8696 35.3851 94.667 35.3851H94.0918V37.0192H94.3745V36.3737H94.6065C94.7585 36.3737 94.8696 36.3966 94.9284 36.4277C95.0314 36.4881 95.0837 36.6139 95.0837 36.8018V36.9326L95.0902 36.9849C95.0902 36.9849 95.0951 36.9963 95.0951 37.0028C95.0984 37.0061 95.0984 37.0126 95.1 37.0175H95.3713L95.3614 36.9979C95.3516 36.9849 95.3467 36.9554 95.3451 36.9162M94.9203 36.1401C94.8582 36.1629 94.7683 36.176 94.6376 36.176H94.3761V35.5943H94.6278C94.7895 35.5943 94.9072 35.6123 94.9807 35.6531C95.0542 35.6956 95.0918 35.7724 95.0918 35.89C95.0918 36.0126 95.033 36.1008 94.9203 36.1417" fill="#002E6D"/>
<path d="M8.4447 38.4049C6.70935 38.4049 5.1897 39.0781 4.25993 40.5569C4.25339 40.5683 4.23378 40.5896 4.21254 40.5896C4.21254 40.5896 4.18639 40.5896 4.18639 40.5602V39.4131C4.18639 38.7872 3.55729 38.7872 3.55729 38.7872H1.13074C1.13074 38.7872 0.5 38.784 0.5 39.4131V57.2405C0.5 57.8745 1.13074 57.8712 1.13074 57.8712H3.74684C3.74684 57.8712 4.37594 57.8712 4.37594 57.2421V51.1863C4.37594 51.152 4.40373 51.1537 4.40373 51.1537H4.41843C4.44131 51.1537 4.44948 51.1684 4.44948 51.1684C5.37761 52.5589 6.9708 53.2828 8.66367 53.2828C12.7864 53.2828 14.8599 49.7598 14.8599 45.9917C14.8599 41.9802 12.8681 38.4016 8.4447 38.4016M7.62768 50.3644C5.11616 50.3644 4.24195 48.1797 4.24195 45.8872C4.24195 43.5946 5.06061 41.3282 7.59991 41.3282C10.1392 41.3282 10.9856 43.6485 10.9856 45.8872C10.9856 48.1258 10.167 50.3644 7.62768 50.3644Z" fill="#002E6D"/>
<path d="M80.2773 34.5453H77.6579C77.0288 34.5453 77.0288 35.1744 77.0288 35.1744V52.2763C77.0288 52.9054 77.6579 52.9037 77.6579 52.9037H80.2773C80.2773 52.9037 80.9064 52.9037 80.9064 52.2763V35.1744C80.9064 35.1744 80.9048 34.5453 80.2773 34.5453Z" fill="#002E6D"/>
<path d="M56.2897 38.4049C54.324 38.4049 52.8501 39.5242 52.0298 40.753C51.2651 39.0618 49.6817 38.4049 47.9071 38.4049C46.1325 38.4049 44.6276 39.2383 43.6177 40.6648C43.6096 40.6746 43.5949 40.6975 43.5654 40.6975C43.5654 40.6975 43.5409 40.6975 43.5409 40.6713V39.4147C43.5409 38.7824 42.9118 38.7856 42.9118 38.7856H40.5131C40.5131 38.7856 39.8823 38.7824 39.8823 39.4115V52.273C39.8823 52.9037 40.5098 52.9005 40.5098 52.9005H43.1292C43.1292 52.9005 43.7583 52.8972 43.7583 52.273V44.7123C43.7583 41.9524 45.6145 41.4638 46.3793 41.4638C48.8369 41.4638 48.7257 43.3462 48.7257 44.9852V52.2746C48.7257 52.9054 49.3549 52.9021 49.3549 52.9021H51.9742C51.9742 52.9021 52.6033 52.907 52.6033 52.2746V45.0407C52.6033 43.2662 53.0135 41.4638 55.1982 41.4638C57.3829 41.4638 57.5741 43.0194 57.5741 44.9018V52.2746C57.5741 52.9054 58.2032 52.9021 58.2032 52.9021H60.8209C60.8209 52.9021 61.45 52.9021 61.45 52.2746V43.4557C61.45 39.7971 59.2947 38.4049 56.2914 38.4049" fill="#002E6D"/>
<path d="M38.2026 38.4163C38.1291 38.4098 38.0572 38.4065 37.9902 38.4065C36.1159 38.4065 34.2155 39.6206 33.4965 41.3804C33.4933 41.3903 33.4769 41.4099 33.4557 41.4099C33.4557 41.4099 33.4296 41.4082 33.4296 41.3821V39.418C33.4296 38.7856 32.8005 38.7889 32.8005 38.7889H30.369C30.369 38.7889 29.7432 38.7856 29.7432 39.418V52.2762C29.7432 52.9037 30.3723 52.9037 30.3723 52.9037H32.9916C32.9916 52.9037 33.6207 52.9037 33.6207 52.2762V46.5424C33.6207 44.057 34.6028 42.0096 37.4444 42.0096C37.683 42.0096 37.9526 42.0243 38.2059 42.0488C38.4428 42.0733 38.8366 42.1484 38.8366 41.5161V39.0454C38.8366 38.5372 38.4216 38.4343 38.2026 38.4147" fill="#002E6D"/>
<path d="M75.7741 52.2779C75.6009 51.6177 75.529 50.6912 75.529 49.7631V42.4197C75.529 39.034 72.1449 38.4065 69.3327 38.4065C66.3571 38.4065 63.308 39.3706 62.7704 42.5014C62.7361 42.7024 62.7034 43.1305 63.326 43.1305H66.0646C66.5728 43.1305 66.6349 42.6909 66.6921 42.5014C67.0107 41.4327 67.8882 40.9997 69.1415 40.9997C70.5059 40.9997 71.653 41.2465 71.653 42.9099C71.653 44.5734 69.4422 44.4132 67.0663 44.7678C64.6642 45.0963 62.2622 45.861 62.2622 49.0539C62.2622 51.9478 64.393 53.2861 67.0663 53.2861C68.7739 53.2861 70.5631 52.8285 71.7919 51.5654C71.8001 51.5573 71.8197 51.5344 71.8197 51.5654C71.836 51.804 71.872 52.0409 71.9243 52.2762C71.9684 52.4903 72.091 52.9037 72.5534 52.9037H75.3934C76.0208 52.9037 75.8427 52.5295 75.7741 52.2779ZM71.653 47.4427C71.653 48.2892 71.5435 50.6912 68.514 50.6912C67.2575 50.6912 66.1381 50.3366 66.1381 48.8905C66.1381 47.4444 67.2313 47.062 68.4307 46.8153C69.6138 46.5996 70.9569 46.5702 71.6236 46.0211C71.6334 46.0146 71.653 45.9917 71.653 46.0228V47.4427Z" fill="#002E6D"/>
<path d="M28.6891 52.2779C28.5143 51.6177 28.4457 50.6912 28.4457 49.7631V42.4197C28.4457 39.034 25.0599 38.4065 22.2477 38.4065C19.2721 38.4065 16.223 39.3706 15.6854 42.5014C15.6511 42.7024 15.6184 43.1305 16.2426 43.1305H18.9797C19.4878 43.1305 19.5516 42.6909 19.6071 42.5014C19.9274 41.4327 20.8049 40.9997 22.0566 40.9997C23.4226 40.9997 24.5681 41.2465 24.5681 42.9099C24.5681 44.5734 22.3572 44.4132 19.983 44.7678C17.5809 45.0963 15.1772 45.861 15.1772 49.0539C15.1772 51.9478 17.3064 53.2861 19.983 53.2861C21.6905 53.2861 23.4782 52.8285 24.707 51.5654C24.7151 51.5573 24.7364 51.5344 24.7364 51.5654C24.7511 51.804 24.7887 52.0409 24.8393 52.2762C24.8851 52.4903 25.006 52.9037 25.4701 52.9037H28.31C28.9375 52.9037 28.7594 52.5295 28.6924 52.2779M24.5664 47.4427C24.5664 48.2892 24.457 50.6912 21.4275 50.6912C20.1725 50.6912 19.0532 50.3366 19.0532 48.8905C19.0532 47.4444 20.1447 47.062 21.3441 46.8153C22.5288 46.5996 23.8703 46.5702 24.5387 46.0211C24.5485 46.0146 24.5664 45.9917 24.5664 46.0228V47.4427Z" fill="#002E6D"/>
<path d="M57.2176 3.55895C56.1163 1.603 55.3107 0.0049134 54.108 1.12824e-05C52.9119 -0.00489084 52.1619 1.5883 51.1374 3.53607C50.1128 5.48385 49.2794 7.78948 49.3089 9.216H49.3219C49.371 11.5396 51.6374 13.4318 54.3875 13.4433C57.1326 13.4531 59.3239 11.5772 59.2749 9.25195H59.2798C59.2504 7.82543 58.3222 5.51326 57.2192 3.55895" fill="#37A2DC"/>
<path d="M31.5029 13.4269C28.9685 13.2194 26.9456 12.9808 26.3606 13.8599C25.7805 14.7341 27.0518 16.11 28.5535 17.8699C30.0568 19.6297 32.016 21.4386 33.4915 22.1559L33.4997 22.1461C35.905 23.3161 38.9345 22.6396 40.2646 20.6314C41.598 18.6248 40.7287 16.0463 38.3234 14.8747C36.8479 14.154 34.0357 13.6328 31.5013 13.4253" fill="#37A2DC"/>
<path d="M80.4062 18.0627C81.8376 16.3159 83.0566 14.9547 82.4357 14.0723C81.8196 13.1949 79.7983 13.4122 77.2721 13.5985C74.7443 13.7847 71.9517 14.2831 70.5055 14.9907L70.5137 15.0005C68.1574 16.1541 67.396 18.7261 68.8127 20.7441C70.2261 22.7622 73.2867 23.4632 75.643 22.3095C77.0875 21.602 78.9748 19.8127 80.4062 18.0627Z" fill="#37A2DC"/>
<path d="M66.2359 20.5824C67.2229 19.0954 67.8912 16.2374 68.1183 13.6557C68.3471 11.0755 68.6363 9.01498 67.3634 8.39568C66.1019 7.78128 64.1721 9.04112 61.6965 10.5281C59.2226 12.0151 56.6947 13.9678 55.7094 15.4547L55.7225 15.4613C54.1146 17.8845 55.1636 20.9941 58.0657 22.4076C60.9678 23.8194 64.6231 23.0007 66.231 20.5774H66.2343L66.2359 20.5824Z" fill="#1C6FB7"/>
<path d="M53.1408 15.4434C52.0918 13.9482 49.4871 11.9776 46.9511 10.4693C44.4183 8.96439 42.4493 7.6833 41.2025 8.29279C39.9656 8.89902 40.3283 10.9661 40.6617 13.5495C40.9934 16.1329 41.7794 18.999 42.8268 20.4925L42.8415 20.486C44.5507 22.9207 48.242 23.7655 51.0836 22.375C53.9252 20.9828 54.8451 17.8797 53.1376 15.445H53.1408V15.4434Z" fill="#1C6FB7"/>
<path d="M41.5178 22.4223C39.4834 22.4141 36.2104 23.2998 33.4473 24.3733C30.6841 25.4469 28.4259 26.2263 28.4504 27.4551C28.4749 28.6758 30.7675 29.483 33.5764 30.5794C36.3837 31.6759 39.6959 32.5877 41.7302 32.5958V32.5811C45.0457 32.5926 47.6863 30.3294 47.6291 27.5254C47.5719 24.7198 44.8349 22.437 41.5195 22.4256V22.4223H41.5178Z" fill="#1C6FB7"/>
<path d="M67.8357 32.6857C69.8701 32.6939 73.1447 31.8082 75.9095 30.7347C78.671 29.6611 80.9309 28.88 80.9047 27.6529C80.8786 26.4322 78.5877 25.625 75.7788 24.5286C72.9715 23.4321 69.6593 22.5203 67.6265 22.5138V22.5269C64.3111 22.5154 61.6688 24.7802 61.726 27.5826C61.7848 30.3882 64.5202 32.6726 67.8357 32.6841V32.6857Z" fill="#1C6FB7"/>
<path d="M59.0081 32.5942C56.6535 35.0747 52.735 35.176 50.2529 32.8197C47.7725 30.4651 47.6728 26.5466 50.0291 24.0662C52.3837 21.5857 56.3022 21.486 58.781 23.8407C61.2615 26.1969 61.3628 30.1154 59.0065 32.5942" fill="#FFDD00"/>
<path d="M53.1894 31.7119C50.8723 30.1955 49.1255 27.1235 50.2792 24.8816C51.4312 22.6397 55.3071 21.942 57.6258 23.46C59.9445 24.978 60.8923 28.0255 59.7386 30.2674C58.585 32.5093 55.5097 33.2299 53.1877 31.7119" fill="white"/>
<path d="M54.2761 1.3971C53.3186 1.39383 52.7205 2.66838 51.9002 4.22726C51.0799 5.78613 50.4116 7.62933 50.4378 8.77153H50.4492C50.4884 10.6311 52.3022 12.1458 54.5016 12.154C56.6994 12.1622 58.4511 10.6605 58.4119 8.80094H58.4151C58.3906 7.66038 57.6488 5.81064 56.7664 4.24687C56.1896 3.22396 55.7157 2.3236 55.1879 1.82195C55.098 1.73698 55.0082 1.66508 54.915 1.60299C54.7157 1.47227 54.5049 1.40037 54.2777 1.39873" fill="white"/>
<path d="M37.5488 15.5446C36.369 14.9678 34.119 14.5511 32.0911 14.3861C30.0649 14.2194 28.4439 14.0282 27.9782 14.7325C27.5158 15.4318 28.5322 16.5316 29.7348 17.9417C30.9359 19.3503 32.5045 20.7964 33.6843 21.3716L33.6908 21.3634C35.6141 22.2997 38.0374 21.7572 39.1028 20.151C39.9509 18.8731 39.6829 17.3045 38.5685 16.2456C38.4018 16.0887 38.2188 15.9417 38.0162 15.8093C37.8707 15.7129 37.7139 15.6247 37.5488 15.5446Z" fill="white"/>
<path d="M76.8083 14.409C74.7854 14.5577 72.5516 14.9564 71.3947 15.5234L71.4013 15.53C69.5156 16.4532 68.9061 18.5105 70.0385 20.1249C71.1709 21.7393 73.6187 22.3014 75.5027 21.3766V21.3798C76.6613 20.8128 78.1711 19.3814 79.3149 17.981C80.4604 16.5839 81.4359 15.4957 80.9392 14.7881C80.9081 14.7456 80.8722 14.7048 80.8346 14.6688C80.7937 14.6312 80.7513 14.5969 80.7022 14.5659C80.0356 14.1296 78.5747 14.2799 76.8051 14.4107" fill="white"/>
<path d="M66.2668 10.2438C65.257 9.75199 63.7128 10.7602 61.734 11.9498C59.7552 13.1394 57.7322 14.7015 56.943 15.8911L56.9561 15.896C55.6701 17.8356 56.5083 20.3242 58.8287 21.4517C61.1507 22.5841 64.0756 21.9272 65.3616 19.9893H65.3632C66.1525 18.798 66.6868 16.512 66.8698 14.4482C67.0332 12.6018 67.2358 11.087 66.5479 10.435C66.5005 10.3909 66.4498 10.3517 66.3943 10.3157C66.3534 10.2896 66.311 10.2651 66.2652 10.2422" fill="#37A2DC"/>
<path d="M46.8724 11.5935C44.8462 10.3875 43.2694 9.36463 42.2726 9.85158C41.2824 10.3353 41.5749 11.9905 41.8396 14.0576C42.1076 16.1247 42.7334 18.4156 43.5733 19.6117L43.5847 19.6068C44.9508 21.5546 47.9051 22.2311 50.1781 21.1183C52.451 20.0039 53.188 17.5218 51.8219 15.574C51.5932 15.2488 51.2745 14.8959 50.8905 14.5315C50.1029 13.7831 49.0408 12.9791 47.9247 12.252C47.5767 12.0249 47.2221 11.8043 46.8724 11.5951" fill="#0097D7"/>
<path d="M40.9103 23.4175C39.2828 23.4126 36.6634 24.1185 34.4526 24.9797C32.2434 25.8392 30.4361 26.4617 30.4557 27.4454C30.4753 28.4209 32.3104 29.0664 34.5555 29.9455C36.8007 30.823 39.4511 31.5518 41.0786 31.5583V31.5469C43.7323 31.5567 45.8435 29.7461 45.7961 27.5026C45.7749 26.4781 45.3059 25.5385 44.551 24.8228C44.3451 24.6267 44.1179 24.4486 43.8728 24.2884C43.0476 23.7492 42.0182 23.4273 40.9087 23.4224" fill="#37A2DC"/>
<path d="M74.8163 25.2998C72.5712 24.4223 69.9208 23.6919 68.2916 23.687V23.6984C65.6396 23.6886 63.5268 25.5008 63.5725 27.7443C63.6199 29.9879 65.8079 31.8147 68.4616 31.8262C70.0874 31.8343 72.7101 31.1268 74.9193 30.2673C77.1285 29.4078 78.9358 28.7836 78.9145 27.8015C78.9096 27.5433 78.7773 27.3064 78.542 27.0825C78.4292 26.9747 78.2919 26.8701 78.1367 26.7688C77.39 26.2819 76.1791 25.8341 74.8163 25.3014" fill="#37A2DC"/>
<path d="M66.5394 19.3552C67.1849 18.0872 67.4431 15.7685 67.3761 13.7112C67.3091 11.6556 67.3401 10.0036 66.2649 9.64247C65.1963 9.28298 63.7746 10.466 61.9396 11.8827C60.1046 13.2995 58.2696 15.0871 57.6257 16.3567L57.6372 16.36C56.5865 18.4287 57.7254 20.7768 60.1847 21.6036C62.6422 22.4305 65.4871 21.4239 66.5394 19.3568H66.5411L66.5394 19.3552Z" fill="#1C6FB7"/>
<path d="M52.3711 14.9188C51.3874 13.8436 47.8578 11.5265 45.6846 10.5886C43.5129 9.65065 42.4394 9.12286 41.5014 9.72745C40.57 10.3271 41.7596 12.4449 42.2743 14.4466C42.7907 16.4499 43.6959 18.6297 44.6796 19.7049L44.6911 19.6984C46.2941 21.4484 49.3269 21.7507 51.4674 20.3732C53.6048 18.9957 54.0427 16.4613 52.4397 14.7113L52.3711 14.9188Z" fill="#1C6FB7"/>
<path d="M40.9066 22.8766C39.2774 23.0416 36.0453 24.0155 33.8524 24.924C31.4667 25.9126 30.0386 26.8293 30.1611 27.7983C30.2837 28.7608 32.8589 29.2167 35.1989 29.8458C37.5388 30.4749 40.266 30.9161 41.8968 30.751V30.7396C44.5521 30.47 46.4786 28.4568 46.1992 26.2443C45.9198 24.0319 40.9082 22.8782 40.9082 22.8782" fill="#1C6FB7"/>
<path d="M69.574 31.5403C71.2064 31.4602 73.9042 31.122 76.0742 30.1514C78.2442 29.1791 79.9109 27.9568 79.839 26.9797C79.7687 26.0091 77.8978 25.4617 75.6019 24.7084C73.3061 23.9534 70.6132 23.3668 68.9824 23.4485V23.4583C66.3239 23.5891 64.3009 25.5042 64.4643 27.7363C64.6261 29.9667 66.9154 31.6694 69.574 31.5387V31.5403Z" fill="#1C6FB7"/>
<path d="M56.8844 3.57198C55.8173 2.12749 55.3451 1.13726 54.381 1.25655C53.4235 1.37583 52.9725 2.71901 52.3352 4.37266C51.6979 6.02795 51.2486 7.94631 51.4054 9.0787H51.4169C51.6751 10.9219 53.6686 12.1981 55.8729 11.9252C58.074 11.6539 59.1802 10.1425 58.9204 8.29763C58.9204 8.29763 57.9514 5.01647 56.8844 3.57362" fill="#37A2DC"/>
<path d="M30.9649 13.7211C28.9174 13.8436 28.1314 13.7815 27.7638 14.5381C27.3978 15.2897 29.0792 16.7538 30.473 17.9679C31.8685 19.182 33.6349 20.3798 34.8931 20.7785L34.898 20.7703C36.9487 21.419 39.2936 20.5448 40.1367 18.8176C40.9799 17.0921 39.7789 15.4842 37.7265 14.8371C37.7265 14.8371 33.0139 13.5985 30.9649 13.7211Z" fill="#37A2DC"/>
<path d="M80.1103 17.6983C81.1839 16.2456 82.1055 15.1116 81.5711 14.4334C81.0417 13.7602 79.4305 14.02 77.4141 14.2749C75.3961 14.5315 73.1771 15.0462 72.0479 15.6704L72.0561 15.6786C70.2146 16.6966 69.7113 18.7767 70.9286 20.3242C72.1476 21.8716 74.6281 22.2997 76.4696 21.2801C77.6004 20.6575 79.0367 19.1509 80.1119 17.6966" fill="#37A2DC"/>
<path d="M52.9185 31.8589C50.572 30.3245 48.9184 27.1545 50.0851 24.8881C51.2518 22.6217 54.796 22.1151 57.1392 23.6495C59.4841 25.1839 60.708 28.4242 59.5429 30.6906C58.3778 32.957 55.2634 33.3933 52.9185 31.8589Z" fill="#FFDD00"/>
</svg>
