<svg viewBox="0 0 1440 2000" fill="none" xmlns="http://www.w3.org/2000/svg"><path d="M0 2000H1440V65C1440 65 1397.5 40 1372.5 29.5C1347.5 19 1295.5 1.49997 1223.5 3.5C1151.5 5.50003 1106.5 12 1034 32.5C961.5 52.9999 928 70.9999 846 80C764 89 696 83.9999 646 72.5C596 61 577 49.8521 512 32C447 14.1478 343.5 7 294 13.5C244.5 19.9999 199 29.5 126 52C53 74.5 0 80.8483 0 80.8483V2000Z" fill="#C6EAF9"/><path d="M0 2000H1440V87.4999C1440 87.4999 1374.5 52.7704 1349.5 42.5C1324.5 32.2296 1298 23.0437 1226 25C1154 26.9563 1094.5 34.98 1021.5 68C948.5 101.02 928.5 114.197 846.5 123C764.5 131.803 710.5 120.749 660.5 109.5C610.5 98.2515 584.5 83.9618 519.5 66.5C454.5 49.0382 375 53.6422 325.5 60C276 66.3578 212 87.4999 146 114.645C80 141.791 0 171.5 0 171.5V2000Z" fill="white"/></svg>
