<svg width="1440" height="2000" viewBox="0 0 1440 2000" fill="none" xmlns="http://www.w3.org/2000/svg">
<g clip-path="url(#clip0_4117_946)">
<path d="M0 2000H1440V0.999943C1440 0.999943 1391.5 -2.58439 1340 21C1288.5 44.5843 1227.5 94.5 1144 94.5C1060.5 94.5 1044.5 91 964 61.5C883.5 32 859 26.9264 800.5 24C742 21.0736 696 33 632 52.5C568 72 506 75 447.5 75C389 75 355 74.6204 284 59.5C213 44.3796 194.5 20.5 118 23.5C41.5 26.5 0 66 0 66V2000Z" fill="white"/>
</g>
<defs>
<clipPath id="clip0_4117_946">
<rect width="1440" height="2000" fill="white"/>
</clipPath>
</defs>
</svg>
